<svg xmlns="http://www.w3.org/2000/svg" width="16" height="16" viewBox="0 0 16 16">
  <g fill="none" fill-rule="evenodd">
    <path fill="#FFF" fill-rule="nonzero" d="M5.63273919,5.7 L5,5.7 L4.83730801,5.58286177 C5.44776747,5.11645074 6.6351905,4.8 8,4.8 L8,5.3 C7.04128945,5.3 6.19709604,5.47260647 5.63273919,5.7 Z M8,7.3 L8,7.8 L8,7.3 Z"/>
    <polygon fill="#FFF" fill-rule="nonzero" points="5.021 4.475 5.021 5.572 4.521 5.977 4.521 4.638" transform="scale(-1 1) rotate(54 0 -4.138)"/>
    <rect width="1" height="1.5" x="3.95" y="4.68" fill="#FFF" fill-rule="nonzero"/>
    <polygon fill="#9AA7B0" fill-opacity=".8" points="7 1 3 5 7 5"/>
    <path fill="#9AA7B0" fill-opacity=".8" d="M13,6.48528137 L4.48528137,15 L3,15 L3,6 L8,6 L8,1 L13,1 L13,6.48528137 Z M13,14.9705627 L13,15 L12.9705627,15 L13,14.9705627 Z"/>
    <g transform="translate(7 7.64)">
      <polygon fill="#62B543" points="6.621 3.69 4.693 1.762 0 6.428 0 8.357 1.928 8.357"/>
      <path fill="#9AA7B0" d="M8.228037,2.08328118 C8.43446382,1.87683451 8.43446382,1.32550476 8.228037,1.11905809 L7.26381391,0.154835003 C7.05738709,-0.0516116678 6.50601764,-0.0516116678 6.29959082,0.154835003 L5.33536773,1.11905809 L7.26381391,3.04750427 L8.228037,2.08328118 Z"/>
    </g>
  </g>
</svg>
