<svg xmlns="http://www.w3.org/2000/svg" width="16" height="16">
  <path d="M8,0a8,8,0,1,0,8,8A8,8,0,0,0,8,0ZM8,15.5A7.5,7.5,0,1,1,15.5,8,7.5,7.5,0,0,1,8,15.5Z" fill="#afb1b3"/>
  <path d="M13.107,9.18a4.988,4.988,0,0,1-2.774,3.376l-.8-.9L8.07,13.017a5.012,5.012,0,0,1-3.964-2.034,1.769,1.769,0,0,0,.444.084c.222.01.45-.078.45-.451V6.931A.6.6,0,0,0,4.425,6.3C3.8,6.283,3.309,7.451,3.119,8.037A4.992,4.992,0,0,1,4.846,4.214,5.058,5.058,0,0,1,7.393,3.039,1.955,1.955,0,0,0,6.321,4.6c0,.862.525.757.679.631v4.972a.756.756,0,0,0,.7.479A3.059,3.059,0,0,0,9,10.092V6.067a1.4,1.4,0,0,0-.629-1.074,1.426,1.426,0,0,1,1.014.237A5.037,5.037,0,0,1,12.458,3.5,3.976,3.976,0,0,0,11,6.2v3.963C11.545,10.691,12.374,9.931,13.107,9.18Z" fill="#afb1b3" fill-rule="evenodd"/>
</svg>
