<svg xmlns="http://www.w3.org/2000/svg" width="16" height="16" viewBox="0 0 16 16">
  <path fill="#F26522" fill-opacity=".7" fill-rule="evenodd" d="M6.349175,4.831925 C6.077925,4.989425 5.853925,5.204675 5.680675,5.467175 C5.514425,5.726175 5.391925,6.021925 5.318425,6.345675 C5.244925,6.665925 5.208175,6.993175 5.208175,7.322175 C5.208175,8.025675 5.335925,8.526175 5.594925,8.851675 C5.860925,9.184175 6.219675,9.353925 6.658925,9.353925 C6.947675,9.353925 7.201425,9.287425 7.414925,9.154425 C7.624925,9.026675 7.799925,8.842925 7.932925,8.610175 C8.060675,8.387925 8.160425,8.120175 8.226925,7.812175 C8.293425,7.514675 8.337175,7.176925 8.352925,6.812925 L8.473675,4.723425 L8.400175,4.705925 C8.198925,4.658675 8.046675,4.634175 7.875175,4.614925 C7.703675,4.597425 7.532175,4.588675 7.353675,4.588675 C6.961675,4.588675 6.625675,4.669175 6.349175,4.831925 Z M0.003675,7.00105 C0.003675,0.001925 6.41798401,0.001925 7.553175,0.001925 C8.13934878,0.001925 14.000175,0.151250757 14.000175,6.224925 C14.000175,10.515925 11.331425,10.5 10.797675,10.5 C9.92830622,10.4475 9.30005622,10.103975 8.912925,9.469425 C8.19455695,10.156475 7.49222362,10.5 6.805925,10.5 C5.38939083,10.5 3.500175,10.361925 3.500175,7.000175 C3.500175,4.0607605 6.04788208,3.500175 7.000175,3.500175 C7.267925,3.500175 10.053925,3.596425 10.192175,3.638425 L10.052175,7.329175 C9.96748525,8.50229804 10.2527353,9.11888137 10.907925,9.178925 C12.1730957,9.178925 12.355175,6.620425 12.355175,6.207425 C12.355175,1.58796692 8.239175,1.303925 7.553175,1.303925 C6.599425,1.303925 1.65119934,1.48905945 1.65119934,7.00105 C1.65119934,8.02204045 1.65119934,12.680675 6.805925,12.680675 C7.157675,12.680675 10.052175,12.3253021 10.783675,11.949175 L10.783675,13.261675 C10.246425,13.480425 8.912925,14.000175 6.821675,14.000175 C5.52258301,14.000175 0.003675,14.000175 0.003675,7.00105 Z" transform="translate(1 1)"/>
</svg>
